<?xml version="1.0" encoding="utf-8"?>
<!-- Generator: Adobe Illustrator 19.2.0, SVG Export Plug-In . SVG Version: 6.00 Build 0)  -->
<!DOCTYPE svg PUBLIC "-//W3C//DTD SVG 1.1//EN" "http://www.w3.org/Graphics/SVG/1.1/DTD/svg11.dtd">
<svg version="1.1" id="Layer_1" xmlns="http://www.w3.org/2000/svg" xmlns:xlink="http://www.w3.org/1999/xlink" x="0px" y="0px"
	 viewBox="0 0 296.6 170.5" style="enable-background:new 0 0 296.6 170.5;" xml:space="preserve">
<style type="text/css">
	.st0{fill:#414042;}
	.st1{fill:#EF4136;}
	.st2{fill:#2BB673;}
	.st3{fill:#FBB040;}
	.st4{fill:#1C75BC;}
</style>
<rect y="140" class="st0" width="296.4" height="3.1"/>
<polygon class="st0" points="48.4,154.6 50.2,154.6 50.2,168.8 59.2,168.8 59.2,170.5 48.4,170.5 "/>
<polygon class="st0" points="67,154.6 78.5,154.6 78.5,156.2 68.8,156.2 68.8,161.9 77.4,161.9 77.4,163.5 68.8,163.5 68.8,170.5 
	67,170.5 "/>
<polygon class="st0" points="6.5,1.7 1.1,1.7 1.1,0 13.6,0 13.6,1.7 8.3,1.7 8.3,15.9 6.5,15.9 "/>
<polygon class="st0" points="21.5,0 23.3,0 23.3,7.1 32.5,7.1 32.5,0 34.3,0 34.3,15.9 32.5,15.9 32.5,8.7 23.3,8.7 23.3,15.9 
	21.5,15.9 "/>
<polygon class="st0" points="43.3,0 54.8,0 54.8,1.6 45.1,1.6 45.1,7.1 53.8,7.1 53.8,8.7 45.1,8.7 45.1,14.3 54.9,14.3 54.9,15.9 
	43.3,15.9 "/>
<polygon class="st0" points="100,154.6 111.5,154.6 111.5,156.2 101.8,156.2 101.8,161.9 110.4,161.9 110.4,163.5 101.8,163.5 
	101.8,170.5 100,170.5 "/>
<g>
	<path class="st0" d="M132.8,162.6L132.8,162.6c0-3.7-2.6-6.6-6.3-6.6c-3.6,0-6.2,2.9-6.2,6.5v0c0,3.6,2.6,6.6,6.3,6.6
		C130.2,169.1,132.8,166.2,132.8,162.6 M118.4,162.6L118.4,162.6c0-4.4,3.3-8.3,8.1-8.3c4.8,0,8.1,3.8,8.1,8.2v0
		c0,4.4-3.3,8.2-8.1,8.2C121.7,170.7,118.4,166.9,118.4,162.6"/>
	<path class="st0" d="M142.7,163.8v-9.2h1.8v9.1c0,3.4,1.8,5.4,4.9,5.4c2.9,0,4.8-1.8,4.8-5.2v-9.2h1.8v9.1c0,4.6-2.7,7-6.6,7
		C145.4,170.7,142.7,168.3,142.7,163.8"/>
</g>
<polygon class="st0" points="164.8,154.6 166.4,154.6 176.5,167.3 176.5,154.6 178.2,154.6 178.2,170.5 176.8,170.5 166.5,157.4 
	166.5,170.5 164.8,170.5 "/>
<g>
	<path class="st0" d="M189,156.2v12.6h3.7c4,0,6.6-2.7,6.6-6.2v0c0-3.5-2.6-6.3-6.6-6.3H189z M187.2,154.6h5.5c5,0,8.5,3.4,8.5,7.9
		v0c0,4.5-3.5,8-8.5,8h-5.5V154.6z"/>
</g>
<path class="st0" d="M218.8,164.6l-3.6-8.1l-3.6,8.1H218.8z M214.4,154.4h1.7l7.2,16h-1.9l-1.9-4.2h-8.7l-1.9,4.2h-1.8L214.4,154.4z
	"/>
<polygon class="st0" points="233.1,156.2 227.8,156.2 227.8,154.6 240.3,154.6 240.3,156.2 235,156.2 235,170.5 233.1,170.5 "/>
<rect x="248.4" y="154.6" class="st0" width="1.8" height="15.9"/>
<g>
	<path class="st0" d="M273,162.6L273,162.6c0-3.7-2.6-6.6-6.3-6.6c-3.6,0-6.2,2.9-6.2,6.5v0c0,3.6,2.6,6.6,6.3,6.6
		C270.4,169.1,273,166.2,273,162.6 M258.6,162.6L258.6,162.6c0-4.4,3.3-8.3,8.1-8.3c4.8,0,8.1,3.8,8.1,8.2v0c0,4.4-3.3,8.2-8.1,8.2
		C261.9,170.7,258.6,166.9,258.6,162.6"/>
</g>
<polygon class="st0" points="283.2,154.6 284.9,154.6 294.9,167.3 294.9,154.6 296.6,154.6 296.6,170.5 295.2,170.5 284.9,157.4 
	284.9,170.5 283.2,170.5 "/>
<g>
	<path class="st0" d="M1.5,162.6L1.5,162.6c0-4.4,3.2-8.3,8-8.3c2.7,0,4.3,0.8,5.9,2.1l-1.2,1.4c-1.2-1.1-2.6-1.8-4.8-1.8
		c-3.5,0-6,3-6,6.5v0c0,3.8,2.4,6.6,6.3,6.6c1.8,0,3.5-0.7,4.6-1.6v-4H9.4V162H16v6.3c-1.5,1.3-3.7,2.4-6.4,2.4
		C4.6,170.7,1.5,167.1,1.5,162.6"/>
	<path class="st0" d="M38.2,162.6L38.2,162.6c0-3.7-2.6-6.6-6.3-6.6c-3.6,0-6.2,2.9-6.2,6.5v0c0,3.6,2.6,6.6,6.3,6.6
		C35.7,169.1,38.2,166.2,38.2,162.6 M23.9,162.6L23.9,162.6c0-4.4,3.3-8.3,8.1-8.3s8.1,3.8,8.1,8.2v0c0,4.4-3.3,8.2-8.1,8.2
		S23.9,166.9,23.9,162.6"/>
</g>
<polygon class="st0" points="259.5,26.6 294.9,26.6 294.9,47.1 280.7,47.1 280.7,66.4 294,66.4 294,85.9 280.7,85.9 280.7,108.4 
	296.3,108.4 296.3,128.8 259.5,128.8 "/>
<polygon class="st1" points="113.5,103 113.5,117.7 113.5,124.3 113.5,125 113.5,126.9 113.5,128.8 135.3,128.8 135.3,124.6 
	135.3,122.7 135.3,122 135.3,115.4 135.3,103 "/>
<polygon class="st2" points="113.5,78.2 113.5,92.8 113.5,99.4 113.5,100.1 113.5,102 113.5,104 135.3,104 135.3,99.8 135.3,97.8 
	135.3,97.2 135.3,90.5 135.3,78.2 "/>
<polygon class="st3" points="113.5,52.4 113.5,67 113.5,73.7 113.5,74.3 113.5,76.2 113.5,78.2 135.3,78.2 135.3,74 135.3,72.1 
	135.3,71.4 135.3,64.7 135.3,52.4 "/>
<polygon class="st4" points="113.5,26.6 113.5,41.2 113.5,47.9 113.5,48.6 113.5,50.5 113.5,52.4 135.3,52.4 135.3,48.2 135.3,46.3 
	135.3,45.6 135.3,39 135.3,26.6 "/>
<g>
	<path class="st0" d="M21.3,82.7v28.6c3-0.1,4.9-0.7,5.7-1.8c0.8-1.1,1.2-3.6,1.2-7.8v-9.5c0-4.4-0.4-7-1.1-8
		C26.5,83.4,24.5,82.9,21.3,82.7 M21.3,44.1v22.7c0.9,0,1.6-0.1,2.1-0.1c2.1,0,3.4-0.6,4-1.9c0.6-1.3,0.9-5,0.9-11
		c0-3.2-0.2-5.4-0.7-6.7c-0.5-1.3-1.1-2.1-1.8-2.4C25,44.3,23.5,44.1,21.3,44.1 M0.1,26.6h21.2c6.7,0,11.8,0.7,15.2,2
		c3.5,1.3,6.2,3.9,8.4,7.9c2.1,4,3.2,10.4,3.2,19.2c0,6-0.8,10.1-2.2,12.5c-1.5,2.4-4.5,4.2-8.9,5.4c4.9,1.4,8.2,3.7,10,6.9
		c1.8,3.2,2.6,8.2,2.6,14.8v9.5c0,6.9-0.6,12-1.9,15.4c-1.3,3.3-3.3,5.6-6,6.8c-2.8,1.2-8.4,1.8-17,1.8H0.1V26.6z"/>
	<path class="st0" d="M78.5,44.1v22.7c2.4,0,4.1-0.4,5-1.2c1-0.8,1.4-3.5,1.4-8V52c0-3.2-0.5-5.4-1.4-6.4
		C82.6,44.6,80.9,44.1,78.5,44.1 M57.2,26.6h15.1c10,0,16.8,0.5,20.4,1.5c3.6,1,6.4,3.4,8.7,7.4c2.2,4,3.4,10.3,3.4,19
		c0,8-0.8,13.3-2.4,16c-1.6,2.7-4.7,4.4-9.3,4.9c4.2,1.3,7,3.1,8.5,5.2c1.4,2.2,2.3,4.2,2.7,6c0.4,1.8,0.5,6.9,0.5,15.1v27H84.9v-34
		c0-5.5-0.3-8.9-1-10.2c-0.7-1.3-2.5-2-5.4-2v46.1H57.2V26.6z"/>
	<path class="st0" d="M166.5,44.1v67.2c3.1,0,5-0.8,5.7-2.3c0.7-1.5,1.1-5.7,1.1-12.5V56.8c0-4.6-0.1-7.6-0.4-8.9
		c-0.2-1.3-0.8-2.3-1.6-2.9C170.4,44.4,168.8,44.1,166.5,44.1 M145.3,26.6h15.9c10.3,0,17.2,0.6,20.8,1.8c3.6,1.2,6.4,3.1,8.3,5.8
		c1.9,2.7,3.1,5.7,3.5,9c0.5,3.3,0.7,9.8,0.7,19.5v35.8c0,9.2-0.3,15.3-1,18.4c-0.7,3.1-1.9,5.5-3.6,7.3c-1.7,1.7-3.8,3-6.4,3.7
		c-2.5,0.7-6.3,1-11.4,1h-26.8V26.6z"/>
	<path class="st0" d="M251.2,64.2H230v-9.3c0-5.9-0.2-9.5-0.6-11c-0.4-1.5-1.4-2.2-2.9-2.2c-1.3,0-2.2,0.6-2.7,1.9
		c-0.5,1.3-0.7,4.5-0.7,9.7v49.1c0,4.6,0.2,7.6,0.7,9.1c0.5,1.5,1.4,2.2,2.8,2.2c1.5,0,2.6-0.8,3.2-2.5c0.6-1.6,0.8-4.8,0.8-9.6
		V89.5h-4.3V74h24.9v54.9h-13.4l-2-7.3c-1.4,3.2-3.3,5.5-5.5,7.1c-2.2,1.6-4.8,2.4-7.8,2.4c-3.6,0-6.9-1.1-10-3.3
		c-3.1-2.2-5.5-4.9-7.1-8.1c-1.6-3.2-2.6-6.6-3-10.1c-0.4-3.5-0.6-8.8-0.6-15.8V63.4c0-9.8,0.4-16.9,1.3-21.3
		c0.8-4.4,3.3-8.5,7.2-12.2s9.1-5.5,15.5-5.5c6.2,0,11.4,1.6,15.5,4.8c4.1,3.2,6.8,7,8,11.4c1.2,4.4,1.9,10.8,1.9,19.2V64.2z"/>
</g>
</svg>
